<?xml version="1.0" encoding="utf-8"?>
<!-- Generator: Adobe Illustrator 19.0.0, SVG Export Plug-In . SVG Version: 6.00 Build 0)  -->
<svg version="1.1" id="Layer_1" xmlns="http://www.w3.org/2000/svg" xmlns:xlink="http://www.w3.org/1999/xlink" x="0px" y="0px"
	 viewBox="140 -117 1280 1234" style="enable-background:new 140 -117 1280 1234;" xml:space="preserve">
<g transform="translate(0.000000,1234.000000) scale(0.100000,-0.100000)">
	<path d="M2043.5,12493 M1999.7,12397.3c20.1-34.7,82.2-105,131.6-165.3c72.4-88.8,273-282.9,434.2-419.9
		c38.4-32.9,77.8-66.9,86.6-76.8c8.8-8.8,48.2-43.9,87.7-76.8s78.9-66.9,87.7-76.8c8.8-8.8,43.9-38.4,76.8-65.8
		c32.9-27.4,68-57,76.8-65.8c8.8-8.8,53.7-48.2,98.7-87.7c45-39.5,89.9-78.9,98.7-87.7s53.7-48.2,98.7-87.7
		c45-39.5,94.3-83.3,109.6-98.7c15.4-15.4,74.6-69.1,130.5-120.6c305.9-274.1,802.6-770.8,1042.7-1041.6
		c45-51.5,94.3-105.3,109.6-120.6c15.4-15.4,49.3-54.8,76.8-87.7c27.4-32.9,57-68,65.8-76.8c8.8-8.8,38.4-43.9,65.8-76.8
		s51.5-62.5,54.8-65.8c3.3-3.3,23-27.4,43.9-54.8c20.8-27.4,40.6-51.5,43.9-54.8s23-27.4,43.9-54.8c20.8-27.4,40.6-51.5,43.9-54.8
		c3.3-3.3,18.6-23,32.9-43.9c14.3-20.8,29.6-40.6,32.9-43.9c3.3-3.3,18.6-23,32.9-43.9s29.6-40.6,32.9-43.9
		c3.3-3.3,28.5-37.3,55.9-76.8c26.3-39.5,51.5-73.5,54.8-76.8c4.4-3.3,41.7-60.3,85.5-126.1c42.8-66.9,81.1-126.1,86.6-131.6
		c13.2-17.5,122.8-202.8,159-268.6c18.6-32.9,45-80,59.2-104.2c57-99.8,163.4-327.8,219.3-471.5c20.8-54.8,42.8-108.5,47.1-120.6
		c11-24.1,50.4-145.8,64.7-197.4c55.9-200.7,77.8-302.6,112.9-542.7c17.5-120.6,16.4-607.4-1.1-745.6
		c-38.4-303.7-96.5-555.9-200.7-871.7c-17.5-54.8-36.2-108.5-41.7-120.6c-4.4-12.1-14.3-39.5-21.9-60.3c-7.7-20.8-23-59.2-34-84.4
		c-12.1-26.3-20.8-51.5-20.8-55.9c0-5.5-6.6-24.1-15.4-41.7c-8.8-17.5-24.1-51.5-34-75.7c-54.8-127.2-227-478.1-279.6-570.2
		c-14.3-24.1-37.3-65.8-52.6-93.2c-61.4-109.6-237.9-400.2-245.6-403.5c-5.5-2.2-8.8-8.8-8.8-14.3c0-8.8-271.9-423.2-298.2-452.8
		c-5.5-6.6-51.5-71.3-103.1-143.6c-50.4-72.4-98.7-139.3-106.4-148s-25.2-34-40.6-54.8c-14.3-20.8-29.6-40.6-32.9-43.9
		c-3.3-3.3-18.6-23-32.9-43.9s-29.6-40.6-32.9-43.9c-3.3-3.3-18.6-23-32.9-43.9c-14.3-20.8-29.6-40.6-32.9-43.9
		c-3.3-3.3-18.6-23-32.9-43.9c-14.3-20.8-29.6-40.6-32.9-43.9c-3.3-3.3-38.4-47.1-76.8-98.7c-39.5-51.5-73.5-95.4-76.8-98.7
		c-3.3-3.3-18.6-23-32.9-43.9s-32.9-45-40.6-52.6c-7.7-7.7-21.9-28.5-32.9-46.1c-9.9-18.6-23.4-29.6-26.3-32.9
		c-6.7-7.7-12.3-19.9-20.8-32.9c-13-17.1-20.1-28.2-23-32.9c-4.7-7.5-8.6-11.4-15.4-21.9c-6.7-10.5-12.5-23.6-20.8-36.2
		c-22.3-33.6-103.1-200.7-109.6-252.2c-4.4-35.1-14.8-85.8-18.9-121.4c-9.6-53.5-12.1-99.2-11-200.1c1.1-136,32.9-159.5,65.8-227.5
		c105.5-174.1,275.5-241.5,523.3-271.1c585.5-69.1,2012,530.7,3896.8,1638.1c1360.7,799.3,2830,1808.1,3777.3,2594.2
		c811.4,673.2,1246.7,1159,1370.6,1530.7c36.2,105.3,46.1,265.3,23,350.9c-32.9,123.9-96.5,225.9-230.3,365.1
		c-711.6,742.3-4024,2745.5-7002,4234.5c-1816.8,909-3029.5,1401.3-3749.9,1525.2c-45,7.7-153.5,14.3-241.2,15.4
		c-185.3,0-268.6-19.7-379.4-91c-247.8-160.1-299.5-502.9-94.2-805.3 M2131.3,12232.1"/>
</g>
</svg>
